<?xml version="1.0" standalone="no"?>
<svg xmlns:xlink="http://www.w3.org/1999/xlink" id="wave" style="transform:rotate(180deg); transition: 0.3s" viewBox="0 0 1440 100" version="1.1" xmlns="http://www.w3.org/2000/svg"><defs><linearGradient id="sw-gradient-0" x1="0" x2="0" y1="1" y2="0"><stop stop-color="rgba(29, 41, 58, 1)" offset="0%"/><stop stop-color="rgba(29, 41, 58, 1)" offset="100%"/></linearGradient></defs><path style="transform:translate(0, 0px); opacity:1" fill="url(#sw-gradient-0)" d="M0,80L60,80C120,80,240,80,360,78.3C480,77,600,73,720,65C840,57,960,43,1080,33.3C1200,23,1320,17,1440,23.3C1560,30,1680,50,1800,56.7C1920,63,2040,57,2160,51.7C2280,47,2400,43,2520,38.3C2640,33,2760,27,2880,20C3000,13,3120,7,3240,8.3C3360,10,3480,20,3600,26.7C3720,33,3840,37,3960,35C4080,33,4200,27,4320,26.7C4440,27,4560,33,4680,41.7C4800,50,4920,60,5040,56.7C5160,53,5280,37,5400,35C5520,33,5640,47,5760,51.7C5880,57,6000,53,6120,46.7C6240,40,6360,30,6480,33.3C6600,37,6720,53,6840,63.3C6960,73,7080,77,7200,68.3C7320,60,7440,40,7560,40C7680,40,7800,60,7920,58.3C8040,57,8160,33,8280,33.3C8400,33,8520,57,8580,68.3L8640,80L8640,100L8580,100C8520,100,8400,100,8280,100C8160,100,8040,100,7920,100C7800,100,7680,100,7560,100C7440,100,7320,100,7200,100C7080,100,6960,100,6840,100C6720,100,6600,100,6480,100C6360,100,6240,100,6120,100C6000,100,5880,100,5760,100C5640,100,5520,100,5400,100C5280,100,5160,100,5040,100C4920,100,4800,100,4680,100C4560,100,4440,100,4320,100C4200,100,4080,100,3960,100C3840,100,3720,100,3600,100C3480,100,3360,100,3240,100C3120,100,3000,100,2880,100C2760,100,2640,100,2520,100C2400,100,2280,100,2160,100C2040,100,1920,100,1800,100C1680,100,1560,100,1440,100C1320,100,1200,100,1080,100C960,100,840,100,720,100C600,100,480,100,360,100C240,100,120,100,60,100L0,100Z"/></svg>