<svg xmlns="http://www.w3.org/2000/svg" xmlns:xlink="http://www.w3.org/1999/xlink" viewBox="0 0 590.8 269.23"><defs><style>.cls-1{fill:#fff;}.cls-2{fill:url(#Degradado_sin_nombre_270);}.cls-3{fill:url(#Degradado_sin_nombre_270-2);}</style><linearGradient id="Degradado_sin_nombre_270" x1="213.17" y1="170.18" x2="354.69" y2="170.18" gradientUnits="userSpaceOnUse"><stop offset="0.21" stop-color="#f74567"/><stop offset="0.37" stop-color="#ff4b64"/><stop offset="0.54" stop-color="#ff4e5e"/><stop offset="0.68" stop-color="#ff5754"/><stop offset="0.86" stop-color="#ff5c4b"/><stop offset="1" stop-color="#fd6b30"/></linearGradient><linearGradient id="Degradado_sin_nombre_270-2" x1="333.79" y1="67.81" x2="377.54" y2="67.81" xlink:href="#Degradado_sin_nombre_270"/></defs><g id="Capa_2" data-name="Capa 2"><g id="Capa_1-2" data-name="Capa 1"><path class="cls-1" d="M122.41,106.26a17.77,17.77,0,0,1-18,17.94H72.87V250.92a17.77,17.77,0,1,1-35.54,0V124.2H17.59a17.77,17.77,0,0,1,0-35.53H37.33c-.36-25.49,9-48.82,26.21-66A85.27,85.27,0,0,1,97.28,1.44c9-3.59,19.39,1.43,22.62,10.77a17.73,17.73,0,0,1-10.77,22.61A52,52,0,0,0,88.67,47.74C77.9,58.51,72.87,72.51,72.87,88.67h31.59A17.7,17.7,0,0,1,122.41,106.26Z"/><path class="cls-1" d="M157,251.28V17.59a17.77,17.77,0,0,1,35.54,0V251.28a17.77,17.77,0,1,1-35.54,0Z"/><path class="cls-1" d="M589.89,128.87,541.75,257.22a17.14,17.14,0,0,1-15.4,10.59,15.92,15.92,0,0,1-15.08-10.59L477.9,168.34l-33.06,88.88a17.13,17.13,0,0,1-15.4,10.59,15.92,15.92,0,0,1-15.08-10.59L366.23,128.87a15.66,15.66,0,0,1,9.3-20.54,15.44,15.44,0,0,1,20.22,9.31l33.69,89.53,33.37-88.89a15.66,15.66,0,0,1,9.63-10,12.93,12.93,0,0,1,4.81-1h3.54a.31.31,0,0,0,.32.32h.64c.32,0,.32,0,.64.32H483c.32.32.32.32.64.32a15.19,15.19,0,0,1,9.31,10l33.37,88.89L560,117.64a15.78,15.78,0,0,1,20.54-9.31C588.6,111.22,592.77,120.53,589.89,128.87Z"/><path class="cls-2" d="M213.17,170.18a70.76,70.76,0,1,1,70.76,70.76A70.8,70.8,0,0,1,213.17,170.18Zm27.91,0a42.85,42.85,0,1,0,42.85-42.85A43,43,0,0,0,241.08,170.18Z"/><circle class="cls-3" cx="355.67" cy="67.81" r="21.87"/></g></g></svg>