<?xml version="1.0" standalone="no"?>
<svg xmlns:xlink="http://www.w3.org/1999/xlink" id="wave" style="transform:rotate(0deg); transition: 0.3s" viewBox="0 0 1440 100" version="1.1" xmlns="http://www.w3.org/2000/svg"><defs><linearGradient id="sw-gradient-0" x1="0" x2="0" y1="1" y2="0"><stop stop-color="rgba(27, 38, 56, 1)" offset="0%"/><stop stop-color="rgba(27, 38, 56, 1)" offset="100%"/></linearGradient></defs><path style="transform:translate(0, 0px); opacity:1" fill="url(#sw-gradient-0)" d="M0,80L34.3,80C68.6,80,137,80,206,78.3C274.3,77,343,73,411,65C480,57,549,43,617,33.3C685.7,23,754,17,823,23.3C891.4,30,960,50,1029,56.7C1097.1,63,1166,57,1234,51.7C1302.9,47,1371,43,1440,38.3C1508.6,33,1577,27,1646,20C1714.3,13,1783,7,1851,8.3C1920,10,1989,20,2057,26.7C2125.7,33,2194,37,2263,35C2331.4,33,2400,27,2469,26.7C2537.1,27,2606,33,2674,41.7C2742.9,50,2811,60,2880,56.7C2948.6,53,3017,37,3086,35C3154.3,33,3223,47,3291,51.7C3360,57,3429,53,3497,46.7C3565.7,40,3634,30,3703,33.3C3771.4,37,3840,53,3909,63.3C3977.1,73,4046,77,4114,68.3C4182.9,60,4251,40,4320,40C4388.6,40,4457,60,4526,58.3C4594.3,57,4663,33,4731,33.3C4800,33,4869,57,4903,68.3L4937.1,80L4937.1,100L4902.9,100C4868.6,100,4800,100,4731,100C4662.9,100,4594,100,4526,100C4457.1,100,4389,100,4320,100C4251.4,100,4183,100,4114,100C4045.7,100,3977,100,3909,100C3840,100,3771,100,3703,100C3634.3,100,3566,100,3497,100C3428.6,100,3360,100,3291,100C3222.9,100,3154,100,3086,100C3017.1,100,2949,100,2880,100C2811.4,100,2743,100,2674,100C2605.7,100,2537,100,2469,100C2400,100,2331,100,2263,100C2194.3,100,2126,100,2057,100C1988.6,100,1920,100,1851,100C1782.9,100,1714,100,1646,100C1577.1,100,1509,100,1440,100C1371.4,100,1303,100,1234,100C1165.7,100,1097,100,1029,100C960,100,891,100,823,100C754.3,100,686,100,617,100C548.6,100,480,100,411,100C342.9,100,274,100,206,100C137.1,100,69,100,34,100L0,100Z"/></svg>