<?xml version="1.0" encoding="utf-8"?>
<!-- Generator: Adobe Illustrator 24.2.1, SVG Export Plug-In . SVG Version: 6.00 Build 0)  -->
<svg version="1.1" id="Capa_1" xmlns="http://www.w3.org/2000/svg" xmlns:xlink="http://www.w3.org/1999/xlink" x="0px" y="0px"
	 viewBox="0 0 1920.3 180.2" style="enable-background:new 0 0 1920.3 180.2;" xml:space="preserve">
<style type="text/css">
	.st0{fill:url(#SVGID_1_);}
	.st1{fill:#1D293A;}
	.st2{fill:url(#SVGID_2_);}
	.st3{fill:url(#SVGID_3_);}
	.st4{fill:#1B2638;}
	.st5{opacity:0.8;fill:#1B2638;enable-background:new    ;}
	.st6{opacity:0.53;fill:#1B2638;enable-background:new    ;}
	.st7{fill:#CDCDD7;}
	.st8{fill:#E4E4EA;}
	.st9{fill:#F0F0F3;}
	.st10{fill:url(#SVGID_4_);}
	.st11{fill:url(#SVGID_5_);}
	.st12{fill:#FB258F;}
	.st13{fill:#FF6B3D;}
	.st14{fill:#FB4170;}
	.st15{fill:#FF4F5F;}
	.st16{fill:#FF5D4E;}
</style>
<linearGradient id="SVGID_1_" gradientUnits="userSpaceOnUse" x1="-460.0032" y1="-174.3772" x2="2622.2402" y2="-174.3772" gradientTransform="matrix(1 0 0 -1 0 -534)">
	<stop  offset="0" style="stop-color:#FFFFFF"/>
	<stop  offset="6.464785e-02" style="stop-color:#F5F6F6"/>
	<stop  offset="0.3307" style="stop-color:#D3D4D6"/>
	<stop  offset="0.5825" style="stop-color:#BABCBE"/>
	<stop  offset="0.8124" style="stop-color:#ABADB0"/>
	<stop  offset="1" style="stop-color:#A6A8AB"/>
</linearGradient>
<path class="st0" d="M2619.4-521.7c-15.9-172.9-266.6-304.8-642.6-368.8c184.2,76.2,301.2,185.1,316.3,316.3
	c36,313,387.4,529.6-1245.8,717.3C323.3,226.3-292.8,40-328.7-273c-12.8-111.5,49.8-224.1,168.5-326.6
	c-197.9,109.8-310.5,235.8-299,360.5c27.1,295,738,468,1588.4,392.8C2503.7,32.3,2646.5-226.7,2619.4-521.7z"/>
<path class="st1" d="M-4.4,88.3V200h1944V39.8c-205.4,45.4-470.1,83.9-810.4,113.9C688.7,192.7,285.6,165-4.4,88.3z"/>
<g>
	<g>
		<g>
			<g>
				<g>
					
						<linearGradient id="SVGID_2_" gradientUnits="userSpaceOnUse" x1="-4045.8999" y1="1380.6998" x2="-3822.6997" y2="1380.6998" gradientTransform="matrix(1 0 0 -1 0 -534)">
						<stop  offset="0.2076" style="stop-color:#F44567"/>
						<stop  offset="0.3715" style="stop-color:#FF4B64"/>
						<stop  offset="0.5428" style="stop-color:#FF4E5E"/>
						<stop  offset="0.6844" style="stop-color:#FF5754"/>
						<stop  offset="0.8631" style="stop-color:#FF5C4B"/>
						<stop  offset="1" style="stop-color:#FA6B30"/>
					</linearGradient>
					<path class="st2" d="M-4045.9-1914.7c0-61.8,50.3-111.6,111.6-111.6c61.8,0,111.6,49.8,111.6,111.6
						c0,61.4-49.8,111.6-111.6,111.6C-3995.6-1803-4045.9-1853.3-4045.9-1914.7z M-4001.8-1914.7c0,36.9,30.2,67.6,67.6,67.6
						c37.4,0,67.6-30.7,67.6-67.6c0-37.4-30.2-67.6-67.6-67.6S-4001.8-1952-4001.8-1914.7z"/>
				</g>
			</g>
			<g>
				
					<linearGradient id="SVGID_3_" gradientUnits="userSpaceOnUse" x1="-3861.8999" y1="1542.2" x2="-3792.8999" y2="1542.2" gradientTransform="matrix(1 0 0 -1 0 -534)">
					<stop  offset="0.2076" style="stop-color:#F44567"/>
					<stop  offset="0.3715" style="stop-color:#FF4B64"/>
					<stop  offset="0.5428" style="stop-color:#FF4E5E"/>
					<stop  offset="0.6844" style="stop-color:#FF5754"/>
					<stop  offset="0.8631" style="stop-color:#FF5C4B"/>
					<stop  offset="1" style="stop-color:#FA6B30"/>
				</linearGradient>
				<circle class="st3" cx="-3827.4" cy="-2076.2" r="34.5"/>
			</g>
		</g>
	</g>
	<path class="st4" d="M-3015.7-1806.9c0-0.1,0-0.2-0.1-0.3v-0.1l0,0c-0.1-0.3-0.2-0.5-0.3-0.8c0,0,0,0,0-0.1l-0.2-0.4l0,0
		l-19.4-51.9v-0.1l-19.1-51.3l0,0l-4.2-11.2l-7.9-21.1c-1.4-3.5-3.9-5.3-7.6-5.3h-23.3c-0.9,0-1.8,0.1-2.5,0.3l0,0
		c-0.3,0.1-0.6,0.2-0.9,0.4c-0.1,0-0.1-0.1-0.2-0.1v0.1c-1.8,0.8-3.1,2.4-4,4.6l-5.4,14.6v0.1l-3.5,9.4l-1,2.6l-0.3,0.8
		c-0.1,0.1-0.1,0.3-0.2,0.5c-0.1,0.5-0.2,1-0.2,1.5s0.1,1,0.2,1.5c0.1,0.2,0.1,0.3,0.2,0.5l6.7,17.8l6.8,18.1l8.1,21.7l3.6,9.7v0.1
		c0.5,1.5,1,3,1.6,4.4v0.1v0.1c1.5,3.5,3.3,6.9,5.3,10.1c0.1,0.2,0.3,0.4,0.4,0.7l0,0c4.8,7.3,11.1,13.5,18.4,18.3l0,0
		c5.5,3.7,11.6,6.5,18.2,8.3c0.4,0.1,0.9,0.2,1.3,0.3c0.6,0.1,1.1,0.3,1.7,0.4l0,0c4.6,1.1,9.5,1.6,14.4,1.6h8.3c1.1,0,2.1-0.4,3-1
		c1.2-0.9,2-2.4,2-4C-3015.6-1806.3-3015.6-1806.6-3015.7-1806.9z"/>
	<path class="st5" d="M-2910.3-1806.9c0-0.1,0-0.2-0.1-0.3v-0.1l0,0c-0.1-0.3-0.2-0.5-0.3-0.8c0,0,0,0,0-0.1l-0.2-0.4l0,0
		l-19.4-51.9v-0.1l-19.1-51.3l0,0l-4.2-11.2l-7.9-21.1c-1.4-3.5-3.9-5.3-7.6-5.3h-23.3c-0.9,0-1.8,0.1-2.5,0.3l0,0
		c-0.3,0.1-0.6,0.2-0.9,0.4c-0.1,0-0.1-0.1-0.2-0.1v0.1c-1.8,0.8-3.1,2.4-4,4.6l-5.4,14.6v0.1l-3.5,9.4l-1,2.6l-0.3,0.8
		c-0.1,0.1-0.1,0.3-0.2,0.5c-0.1,0.5-0.2,1-0.2,1.5s0.1,1,0.2,1.5c0.1,0.2,0.1,0.3,0.2,0.5l6.7,17.8l6.8,18.1l8.1,21.7l3.6,9.7v0.1
		c0.5,1.5,1,3,1.6,4.4v0.1v0.1c1.5,3.5,3.3,6.9,5.3,10.1c0.1,0.2,0.3,0.4,0.4,0.7l0,0c4.8,7.3,11.1,13.5,18.4,18.3l0,0
		c5.5,3.7,11.6,6.5,18.2,8.3c0.4,0.1,0.9,0.2,1.3,0.3c0.6,0.1,1.1,0.3,1.7,0.4l0,0c4.6,1.1,9.5,1.6,14.4,1.6h8.3c1.1,0,2.1-0.4,3-1
		c1.2-0.9,2-2.4,2-4C-2910.2-1806.3-2910.3-1806.6-2910.3-1806.9z"/>
	<path class="st6" d="M-2804.9-1806.9c0-0.1,0-0.2-0.1-0.3v-0.1l0,0c-0.1-0.3-0.2-0.5-0.3-0.8c0,0,0,0,0-0.1l-0.2-0.4l0,0
		l-19.4-51.9v-0.1l-19.1-51.3l0,0l-4.2-11.2l-7.9-21.1c-1.4-3.5-3.9-5.3-7.6-5.3h-23.3c-0.9,0-1.8,0.1-2.5,0.3l0,0
		c-0.3,0.1-0.6,0.2-0.9,0.4c-0.1,0-0.1-0.1-0.2-0.1v0.1c-1.8,0.8-3.1,2.4-4,4.6l-5.4,14.6v0.1l-3.5,9.4l-1,2.6l-0.3,0.8
		c-0.1,0.1-0.1,0.3-0.2,0.5c-0.1,0.5-0.2,1-0.2,1.5s0.1,1,0.2,1.5c0.1,0.2,0.1,0.3,0.2,0.5l6.7,17.8l6.8,18.1l8.1,21.7l3.6,9.7v0.1
		c0.5,1.5,1,3,1.6,4.4v0.1v0.1c1.5,3.5,3.3,6.9,5.3,10.1c0.1,0.2,0.3,0.4,0.4,0.7l0,0c4.8,7.3,11.1,13.5,18.4,18.3l0,0
		c5.5,3.7,11.6,6.5,18.2,8.3c0.4,0.1,0.9,0.2,1.3,0.3c0.6,0.1,1.1,0.3,1.7,0.4l0,0c4.6,1.1,9.5,1.6,14.4,1.6h8.3c1.1,0,2.1-0.4,3-1
		c1.2-0.9,2-2.4,2-4C-2804.9-1806.3-2804.9-1806.6-2804.9-1806.9z"/>
	<path class="st7" d="M-2699.6-1806.9c0-0.1,0-0.2-0.1-0.3v-0.1l0,0c-0.1-0.3-0.2-0.5-0.3-0.8c0,0,0,0,0-0.1l-0.2-0.4l0,0
		l-19.4-51.9v-0.1l-19.1-51.3l0,0l-4.2-11.2l-7.9-21.1c-1.4-3.5-3.9-5.3-7.6-5.3h-23.3c-0.9,0-1.8,0.1-2.5,0.3l0,0
		c-0.3,0.1-0.6,0.2-0.9,0.4c-0.1,0-0.1-0.1-0.2-0.1v0.1c-1.8,0.8-3.1,2.4-4,4.6l-5.4,14.6v0.1l-3.5,9.4l-1,2.6l-0.3,0.8
		c-0.1,0.1-0.1,0.3-0.2,0.5c-0.1,0.5-0.2,1-0.2,1.5s0.1,1,0.2,1.5c0.1,0.2,0.1,0.3,0.2,0.5l6.7,17.8l6.8,18.1l8.1,21.7l3.6,9.7v0.1
		c0.5,1.5,1,3,1.6,4.4v0.1v0.1c1.5,3.5,3.3,6.9,5.3,10.1c0.1,0.2,0.3,0.4,0.4,0.7l0,0c4.8,7.3,11.1,13.5,18.4,18.3l0,0
		c5.5,3.7,11.6,6.5,18.2,8.3c0.4,0.1,0.9,0.2,1.3,0.3c0.6,0.1,1.1,0.3,1.7,0.4l0,0c4.6,1.1,9.5,1.6,14.4,1.6h8.3c1.1,0,2.1-0.4,3-1
		c1.2-0.9,2-2.4,2-4C-2699.5-1806.3-2699.5-1806.6-2699.6-1806.9z"/>
	<path class="st8" d="M-2594.2-1806.9c0-0.1,0-0.2-0.1-0.3v-0.1l0,0c-0.1-0.3-0.2-0.5-0.3-0.8c0,0,0,0,0-0.1l-0.2-0.4l0,0
		l-19.4-51.9v-0.1l-19.1-51.3l0,0l-4.2-11.2l-7.9-21.1c-1.4-3.5-3.9-5.3-7.6-5.3h-23.3c-0.9,0-1.8,0.1-2.5,0.3l0,0
		c-0.3,0.1-0.6,0.2-0.9,0.4c-0.1,0-0.1-0.1-0.2-0.1v0.1c-1.8,0.8-3.1,2.4-4,4.6l-5.4,14.6v0.1l-3.5,9.4l-1,2.6l-0.3,0.8
		c-0.1,0.1-0.1,0.3-0.2,0.5c-0.1,0.5-0.2,1-0.2,1.5s0.1,1,0.2,1.5c0.1,0.2,0.1,0.3,0.2,0.5l6.7,17.8l6.8,18.1l8.1,21.7l3.6,9.7v0.1
		c0.5,1.5,1,3,1.6,4.4v0.1v0.1c1.5,3.5,3.3,6.9,5.3,10.1c0.1,0.2,0.3,0.4,0.4,0.7l0,0c4.8,7.3,11.1,13.5,18.4,18.3l0,0
		c5.5,3.7,11.6,6.5,18.2,8.3c0.4,0.1,0.9,0.2,1.3,0.3c0.6,0.1,1.1,0.3,1.7,0.4l0,0c4.6,1.1,9.5,1.6,14.4,1.6h8.3c1.1,0,2.1-0.4,3-1
		c1.2-0.9,2-2.4,2-4C-2594.1-1806.3-2594.2-1806.6-2594.2-1806.9z"/>
	<path class="st9" d="M-2488.8-1806.9c0-0.1,0-0.2-0.1-0.3v-0.1l0,0c-0.1-0.3-0.2-0.5-0.3-0.8c0,0,0,0,0-0.1l-0.2-0.4l0,0
		l-19.4-51.9v-0.1l-19.1-51.3l0,0l-4.2-11.2l-7.9-21.1c-1.4-3.5-3.9-5.3-7.6-5.3h-23.3c-0.9,0-1.8,0.1-2.5,0.3l0,0
		c-0.3,0.1-0.6,0.2-0.9,0.4c-0.1,0-0.1-0.1-0.2-0.1v0.1c-1.8,0.8-3.1,2.4-4,4.6l-5.4,14.6v0.1l-3.5,9.4l-1,2.6l-0.3,0.8
		c-0.1,0.1-0.1,0.3-0.2,0.5c-0.1,0.5-0.2,1-0.2,1.5s0.1,1,0.2,1.5c0.1,0.2,0.1,0.3,0.2,0.5l6.7,17.8l6.8,18.1l8.1,21.7l3.6,9.7v0.1
		c0.5,1.5,1,3,1.6,4.4v0.1v0.1c1.5,3.5,3.3,6.9,5.3,10.1c0.1,0.2,0.3,0.4,0.4,0.7l0,0c4.8,7.3,11.1,13.5,18.4,18.3l0,0
		c5.5,3.7,11.6,6.5,18.2,8.3c0.4,0.1,0.9,0.2,1.3,0.3c0.6,0.1,1.1,0.3,1.7,0.4l0,0c4.6,1.1,9.5,1.6,14.4,1.6h8.3c1.1,0,2.1-0.4,3-1
		c1.2-0.9,2-2.4,2-4C-2488.8-1806.3-2488.8-1806.6-2488.8-1806.9z"/>
	
		<linearGradient id="SVGID_4_" gradientUnits="userSpaceOnUse" x1="-2889.9893" y1="591.2028" x2="-2829.0107" y2="555.9971" gradientTransform="matrix(1 0 0 -1 0 -534)">
		<stop  offset="0" style="stop-color:#1B2638"/>
		<stop  offset="1" style="stop-color:#1B2638;stop-opacity:0.7"/>
	</linearGradient>
	<circle class="st10" cx="-2859.5" cy="-1107.6" r="35.2"/>
	
		<linearGradient id="SVGID_5_" gradientUnits="userSpaceOnUse" x1="-4029.8892" y1="591.6028" x2="-3968.9106" y2="556.3972" gradientTransform="matrix(1 0 0 -1 0 -534)">
		<stop  offset="0.2076" style="stop-color:#F44567"/>
		<stop  offset="0.3715" style="stop-color:#FF4B64"/>
		<stop  offset="0.5428" style="stop-color:#FF4E5E"/>
		<stop  offset="0.6844" style="stop-color:#FF5754"/>
		<stop  offset="0.8631" style="stop-color:#FF5C4B"/>
		<stop  offset="1" style="stop-color:#FA6B30"/>
	</linearGradient>
	<circle class="st11" cx="-3999.4" cy="-1108" r="35.2"/>
	<rect x="-4124.6" y="-1752" class="st12" width="250.2" height="250.2"/>
	<rect x="-3819.3" y="-1752" class="st13" width="155.8" height="155.8"/>
	<g>
		<path class="st14" d="M-3533.2-1808.1c0-0.1,0-0.2-0.1-0.3v-0.1l0,0c-0.1-0.3-0.2-0.5-0.3-0.8c0,0,0,0,0-0.1l-0.2-0.4l0,0
			l-19.4-51.9v-0.1l-19.1-51.3l0,0l-4.2-11.2l-7.9-21.1c-1.4-3.5-3.9-5.3-7.6-5.3h-23.3c-0.9,0-1.8,0.1-2.5,0.3l0,0
			c-0.3,0.1-0.6,0.2-0.9,0.4c-0.1,0-0.1-0.1-0.2-0.1v0.1c-1.8,0.8-3.1,2.4-4,4.6l-5.4,14.6v0.1l-3.5,9.4l-1,2.6l-0.3,0.8
			c-0.1,0.1-0.1,0.3-0.2,0.5c-0.1,0.5-0.2,1-0.2,1.5s0.1,1,0.2,1.5c0.1,0.2,0.1,0.3,0.2,0.5l6.7,17.8l6.8,18.1l8.1,21.7l3.6,9.7v0.1
			c0.5,1.5,1,3,1.6,4.4v0.1v0.1c1.5,3.5,3.3,6.9,5.3,10.1c0.1,0.2,0.3,0.4,0.4,0.7l0,0c4.8,7.3,11.1,13.5,18.4,18.3l0,0
			c5.5,3.7,11.6,6.5,18.2,8.3c0.4,0.1,0.9,0.2,1.3,0.3c0.6,0.1,1.1,0.3,1.7,0.4l0,0c4.6,1.1,9.5,1.6,14.4,1.6h8.3c1.1,0,2.1-0.4,3-1
			c1.2-0.9,2-2.4,2-4C-3533.2-1807.6-3533.2-1807.9-3533.2-1808.1z"/>
		<path class="st15" d="M-3422.2-1808.1c0-0.1,0-0.2-0.1-0.3v-0.1l0,0c-0.1-0.3-0.2-0.5-0.3-0.8c0,0,0,0,0-0.1l-0.2-0.4l0,0
			l-19.4-51.9v-0.1l-19.1-51.3l0,0l-4.2-11.2l-7.9-21.1c-1.4-3.5-3.9-5.3-7.6-5.3h-23.4c-0.9,0-1.8,0.1-2.5,0.3l0,0
			c-0.3,0.1-0.6,0.2-0.9,0.4c-0.1,0-0.1-0.1-0.2-0.1v0.1c-1.8,0.8-3.1,2.4-4,4.6l-5.4,14.6v0.1l-3.5,9.4l-1,2.6l-0.3,0.8
			c-0.1,0.1-0.1,0.3-0.2,0.5c-0.1,0.5-0.2,1-0.2,1.5s0.1,1,0.2,1.5c0.1,0.2,0.1,0.3,0.2,0.5l6.7,17.8l6.8,18.1l8.1,21.7l3.6,9.7v0.1
			c0.5,1.5,1,3,1.6,4.4v0.1v0.1c1.5,3.5,3.3,6.9,5.3,10.1c0.1,0.2,0.3,0.4,0.4,0.7l0,0c4.8,7.3,11.1,13.5,18.4,18.3l0,0
			c5.5,3.7,11.7,6.5,18.2,8.3c0.4,0.1,0.9,0.2,1.3,0.3c0.6,0.1,1.1,0.3,1.7,0.4l0,0c4.7,1.1,9.5,1.6,14.5,1.6h8.3c1.1,0,2.1-0.4,3-1
			c1.2-0.9,2-2.4,2-4C-3422.1-1807.6-3422.1-1807.9-3422.2-1808.1z"/>
		<path class="st16" d="M-3311.3-1808.1c0-0.1,0-0.2-0.1-0.3v-0.1l0,0c-0.1-0.3-0.2-0.5-0.3-0.8c0,0,0,0,0-0.1l-0.2-0.4l0,0
			l-19.4-51.9v-0.1l-19.1-51.3l0,0l-4.2-11.2l-7.9-21.1c-1.4-3.5-3.9-5.3-7.6-5.3h-23.3c-0.9,0-1.8,0.1-2.5,0.3l0,0
			c-0.3,0.1-0.6,0.2-0.9,0.4c-0.1,0-0.1-0.1-0.2-0.1v0.1c-1.8,0.8-3.1,2.4-4,4.6l-5.4,14.6v0.1l-3.5,9.4l-1,2.6l-0.3,0.8
			c-0.1,0.1-0.1,0.3-0.2,0.5c-0.1,0.5-0.2,1-0.2,1.5s0.1,1,0.2,1.5c0.1,0.2,0.1,0.3,0.2,0.5l6.7,17.8l6.8,18.1l8.1,21.7l3.6,9.7v0.1
			c0.5,1.5,1,3,1.6,4.4v0.1v0.1c1.5,3.5,3.3,6.9,5.3,10.1c0.1,0.2,0.3,0.4,0.4,0.7l0,0c4.8,7.3,11.1,13.5,18.4,18.3l0,0
			c5.5,3.7,11.6,6.5,18.2,8.3c0.4,0.1,0.9,0.2,1.3,0.3c0.6,0.1,1.1,0.3,1.7,0.4l0,0c4.6,1.1,9.5,1.6,14.4,1.6h8.3c1.1,0,2.1-0.4,3-1
			c1.2-0.9,2-2.4,2-4C-3311.2-1807.6-3311.2-1807.9-3311.3-1808.1z"/>
		
			<text transform="matrix(1 0 0 1 -3603.4048 -1746.0076)" style="fill:#8686A0; font-family:'Rubik-Medium'; font-size:13.6642px;">Valores:</text>
		
			<text transform="matrix(1 0 0 1 -3603.5259 -1714.9646)" style="opacity:0.8;fill:#131347;enable-background:new    ; font-family:'Rubik-Medium'; font-size:13.6642px;">RGB</text>
		
			<text transform="matrix(1 0 0 1 -3603.5259 -1699.3591)" style="opacity:0.8;fill:#131347;enable-background:new    ; font-family:'Rubik-Regular'; font-size:13.6642px;">254   65   112</text>
		
			<text transform="matrix(1 0 0 1 -3603.5259 -1662.9998)" style="opacity:0.8;fill:#131347;enable-background:new    ; font-family:'Rubik-Medium'; font-size:13.6642px;">HEX/HTML</text>
		
			<text transform="matrix(1 0 0 1 -3603.5259 -1645.7224)" style="opacity:0.8;fill:#131347;enable-background:new    ; font-family:'Rubik-Regular'; font-size:13.6642px;">#FE4170</text>
		
			<text transform="matrix(1 0 0 1 -3603.5259 -1609.9607)" style="opacity:0.8;fill:#131347;enable-background:new    ; font-family:'Rubik-Medium'; font-size:13.6642px;">CMYK</text>
		
			<text transform="matrix(1 0 0 1 -3603.5259 -1593.0623)" style="opacity:0.8;fill:#131347;enable-background:new    ; font-family:'Rubik-Regular'; font-size:13.6642px;">0   84   32  0</text>
		
			<text transform="matrix(1 0 0 1 -3491.5259 -1746.0076)" style="fill:#8686A0; font-family:'Rubik-Medium'; font-size:13.6642px;">Valores:</text>
		
			<text transform="matrix(1 0 0 1 -3491.647 -1714.9646)" style="opacity:0.8;fill:#131347;enable-background:new    ; font-family:'Rubik-Medium'; font-size:13.6642px;">RGB</text>
		
			<text transform="matrix(1 0 0 1 -3491.647 -1699.3591)" style="opacity:0.8;fill:#131347;enable-background:new    ; font-family:'Rubik-Regular'; font-size:13.6642px;">255   79  95</text>
		
			<text transform="matrix(1 0 0 1 -3491.647 -1662.9998)" style="opacity:0.8;fill:#131347;enable-background:new    ; font-family:'Rubik-Medium'; font-size:13.6642px;">HEX/HTML</text>
		
			<text transform="matrix(1 0 0 1 -3491.647 -1645.7224)" style="opacity:0.8;fill:#131347;enable-background:new    ; font-family:'Rubik-Regular'; font-size:13.6642px;">#FF4F5F</text>
		
			<text transform="matrix(1 0 0 1 -3491.647 -1609.9607)" style="opacity:0.8;fill:#131347;enable-background:new    ; font-family:'Rubik-Medium'; font-size:13.6642px;">CMYK</text>
		
			<text transform="matrix(1 0 0 1 -3491.647 -1593.0623)" style="opacity:0.8;fill:#131347;enable-background:new    ; font-family:'Rubik-Regular'; font-size:13.6642px;">0  80  49  0</text>
		
			<text transform="matrix(1 0 0 1 -3379.7603 -1746.0076)" style="fill:#8686A0; font-family:'Rubik-Medium'; font-size:13.6642px;">Valores:</text>
		
			<text transform="matrix(1 0 0 1 -3379.8813 -1714.9646)" style="opacity:0.8;fill:#131347;enable-background:new    ; font-family:'Rubik-Medium'; font-size:13.6642px;">RGB</text>
		
			<text transform="matrix(1 0 0 1 -3379.8853 -1699.3591)" style="opacity:0.8;fill:#131347;enable-background:new    ; font-family:'Rubik-Regular'; font-size:13.6642px;">255  93  78</text>
		
			<text transform="matrix(1 0 0 1 -3379.8813 -1662.9998)" style="opacity:0.8;fill:#131347;enable-background:new    ; font-family:'Rubik-Medium'; font-size:13.6642px;">HEX/HTML</text>
		
			<text transform="matrix(1 0 0 1 -3379.8853 -1645.7224)" style="opacity:0.8;fill:#131347;enable-background:new    ; font-family:'Rubik-Regular'; font-size:13.6642px;">#FF5D4E</text>
		
			<text transform="matrix(1 0 0 1 -3379.8813 -1609.9607)" style="opacity:0.8;fill:#131347;enable-background:new    ; font-family:'Rubik-Medium'; font-size:13.6642px;">CMYK</text>
		
			<text transform="matrix(1 0 0 1 -3379.8853 -1593.0623)" style="opacity:0.8;fill:#131347;enable-background:new    ; font-family:'Rubik-Regular'; font-size:13.6642px;">0   75   63   0</text>
	</g>
	<rect x="-2679.7" y="-1648.4" class="st4" width="308" height="308"/>
</g>
</svg>
